HIERARCHY
ROOT joint_0
{
	OFFSET 0.000000 0.000000 0.000000
	CHANNELS 6 Xposition Yposition Zposition Zrotation Yrotation Xrotation 
	JOINT joint_1
	{
		OFFSET 4.520508 -1.939880 86.268921
		CHANNELS 3 Zrotation Yrotation Xrotation
		JOINT joint_2
		{
			OFFSET -4.459717 -0.438538 78.934082
			CHANNELS 3 Zrotation Yrotation Xrotation
			JOINT joint_3
			{
				OFFSET -5.197754 -0.781128 78.796997
				CHANNELS 3 Zrotation Yrotation Xrotation
				JOINT joint_4
				{
					OFFSET 2.952026 -3.710571 109.812988
					CHANNELS 3 Zrotation Yrotation Xrotation
					JOINT joint_5
					{
						OFFSET 24.716797 -5.488037 87.903931
						CHANNELS 3 Zrotation Yrotation Xrotation
						End Site
						{
							OFFSET 0.000000 0.000000 0.000000
						}
					}
				}
				JOINT joint_6
				{
					OFFSET -3.154419 -25.484680 60.934937
					CHANNELS 3 Zrotation Yrotation Xrotation
					JOINT joint_7
					{
						OFFSET -28.997192 -144.472229 -32.671997
						CHANNELS 3 Zrotation Yrotation Xrotation
						JOINT joint_8
						{
							OFFSET 19.867676 -18.614380 -249.897949
							CHANNELS 3 Zrotation Yrotation Xrotation
							JOINT joint_9
							{
								OFFSET 5.281982 -13.816650 -264.993042
								CHANNELS 3 Zrotation Yrotation Xrotation
								End Site
								{
									OFFSET 0.000000 0.000000 0.000000
								}
							}
						}
					}
				}
				JOINT joint_10
				{
					OFFSET 6.494995 21.336792 62.257935
					CHANNELS 3 Zrotation Yrotation Xrotation
					JOINT joint_11
					{
						OFFSET 31.106567 145.200745 -27.007935
						CHANNELS 3 Zrotation Yrotation Xrotation
						JOINT joint_12
						{
							OFFSET 29.119141 24.684326 -248.460083
							CHANNELS 3 Zrotation Yrotation Xrotation
							JOINT joint_13
							{
								OFFSET 21.220093 31.248413 -262.703979
								CHANNELS 3 Zrotation Yrotation Xrotation
								End Site
								{
									OFFSET 0.000000 0.000000 0.000000
								}
							}
						}
					}
				}
			}
		}
	}
	JOINT joint_14
	{
		OFFSET -15.458496 -88.861694 -109.593018
		CHANNELS 3 Zrotation Yrotation Xrotation
		JOINT joint_15
		{
			OFFSET -6.193359 6.837952 -506.710999
			CHANNELS 3 Zrotation Yrotation Xrotation
			JOINT joint_16
			{
				OFFSET -35.096680 13.289795 -435.677025
				CHANNELS 3 Zrotation Yrotation Xrotation
				JOINT joint_17
				{
					OFFSET 158.491211 -33.916565 -71.771002
					CHANNELS 3 Zrotation Yrotation Xrotation
					End Site
					{
						OFFSET 0.000000 0.000000 0.000000
					}
				}
			}
		}
	}
	JOINT joint_18
	{
		OFFSET 23.116943 86.574158 -110.082031
		CHANNELS 3 Zrotation Yrotation Xrotation
		JOINT joint_19
		{
			OFFSET -6.125854 -0.283569 -506.757019
			CHANNELS 3 Zrotation Yrotation Xrotation
			JOINT joint_20
			{
				OFFSET -63.240234 11.589966 -432.537994
				CHANNELS 3 Zrotation Yrotation Xrotation
				JOINT joint_21
				{
					OFFSET 156.074219 -41.487305 -73.077999
					CHANNELS 3 Zrotation Yrotation Xrotation
					End Site
					{
						OFFSET 0.000000 0.000000 0.000000
					}
				}
			}
		}
	}
}
MOTION
Frames: 13
Frame Time: 0.016667
-2178.300781 892.300293 1146.003052 8.878686 5.467475 1.463617 -0.517468 4.326688 1.004831 -0.502472 -0.881177 -0.202342 -0.454424 0.792393 0.174726 -0.381566 3.008626 1.823803 0.000000 0.000000 0.000000 1.565983 -2.343904 -2.282531 0.329334 -2.683861 0.930895 0.124709 -4.975372 -2.819921 0.000000 0.000000 0.000000 -4.306173 -2.487311 -0.848761 -0.197693 -1.901380 -0.021933 -0.422234 -2.346383 -1.673876 0.000000 0.000000 0.000000 -0.766919 -0.336522 1.472500 -0.762231 -1.876440 -0.935767 -0.733221 1.247180 -0.061484 0.000000 0.000000 0.000000 0.796853 -1.194959 -1.791742 0.779915 -1.072242 0.357438 0.801377 1.509286 0.773814 0.000000 0.000000 0.000000 
-2173.690674 891.534668 1146.239014 8.870782 6.414206 1.672571 -0.522529 3.747750 0.872993 -0.505420 -0.824706 -0.184805 -0.459734 0.746205 0.159775 -0.383774 3.121776 1.839087 0.000000 0.000000 0.000000 1.386352 -2.421274 -2.442308 0.322109 -2.825456 0.916150 0.139520 -5.475406 -2.730042 0.000000 0.000000 0.000000 -4.457133 -2.607666 -0.817960 -0.210875 -1.990337 -0.017057 -0.480952 -2.692545 -1.894379 0.000000 0.000000 0.000000 -0.758446 -1.160240 1.324808 -0.749033 -1.856053 -0.927804 -0.718916 1.363469 -0.029853 0.000000 0.000000 0.000000 0.787446 -2.048510 -1.946452 0.766296 -0.977552 0.363712 0.786170 1.585016 0.786405 0.000000 0.000000 0.000000 
-2169.113281 890.732666 1146.458984 8.868424 7.174683 1.836172 -0.537811 3.368125 0.788994 -0.519697 -0.776920 -0.174218 -0.475711 0.703154 0.151757 -0.387430 3.173094 1.850449 0.000000 0.000000 0.000000 1.250981 -2.513299 -2.583083 0.318267 -2.968014 0.899043 0.150670 -5.921524 -2.669936 0.000000 0.000000 0.000000 -4.610488 -2.746374 -0.772098 -0.227440 -2.090806 -0.029114 -0.529739 -2.986618 -2.080908 0.000000 0.000000 0.000000 -0.744689 -1.806798 1.220419 -0.730214 -1.772999 -0.912577 -0.701664 1.440115 -0.005389 0.000000 0.000000 0.000000 0.776731 -2.803667 -2.075024 0.753168 -0.665663 0.433306 0.774023 1.574042 0.777404 0.000000 0.000000 0.000000 
-2164.616455 889.842529 1146.656982 8.832803 7.638430 1.902471 -0.560847 3.311827 0.816462 -0.543878 -0.742576 -0.185064 -0.499601 0.671636 0.151539 -0.392814 3.127337 1.855150 0.000000 0.000000 0.000000 1.208633 -2.637466 -2.693334 0.320860 -3.116848 0.880989 0.156866 -6.300399 -2.679955 0.000000 0.000000 0.000000 -4.762269 -2.918572 -0.694053 -0.250126 -2.212276 -0.073042 -0.563627 -3.199513 -2.217323 0.000000 0.000000 0.000000 -0.709322 -2.168720 1.213870 -0.689750 -1.599501 -0.898158 -0.667965 1.452214 0.012588 0.000000 0.000000 0.000000 0.774768 -3.317803 -2.106247 0.750743 -0.172705 0.539231 0.773115 1.454884 0.744878 0.000000 0.000000 0.000000 
-2160.153809 888.916931 1146.838013 8.799275 7.917494 1.920993 -0.596230 3.453022 0.894882 -0.579949 -0.721312 -0.204600 -0.534140 0.650477 0.158614 -0.399629 3.023945 1.857067 0.000000 0.000000 0.000000 1.214905 -2.778604 -2.779841 0.326843 -3.265996 0.854394 0.160203 -6.625635 -2.721738 0.000000 0.000000 0.000000 -4.914851 -3.109090 -0.605027 -0.275852 -2.347823 -0.126657 -0.587976 -3.360298 -2.322385 0.000000 0.000000 0.000000 -0.668875 -2.355601 1.252661 -0.644470 -1.362137 -0.876420 -0.631974 1.419051 0.021860 0.000000 0.000000 0.000000 0.771039 -3.734983 -2.109313 0.747452 0.537270 0.706759 0.776759 1.253695 0.692636 0.000000 0.000000 0.000000 
-2155.706055 888.076233 1147.116943 8.822401 8.118264 1.972018 -0.645872 3.658045 0.918371 -0.623468 -0.726567 -0.199259 -0.577473 0.653348 0.165307 -0.410088 2.941402 1.873436 0.000000 0.000000 0.000000 1.215634 -2.931348 -2.828054 0.333242 -3.410963 0.780470 0.162138 -6.850889 -2.737110 0.000000 0.000000 0.000000 -5.026500 -3.319096 -0.579163 -0.301638 -2.533915 -0.133276 -0.602027 -3.440781 -2.415403 0.000000 0.000000 0.000000 -0.649870 -2.510794 1.236519 -0.620195 -1.010619 -0.810182 -0.617040 1.350385 0.014091 0.000000 0.000000 0.000000 0.755017 -4.347682 -2.250430 0.732891 1.800022 1.079762 0.792220 0.984798 0.627763 0.000000 0.000000 0.000000 
-2151.272705 887.403015 1147.567993 8.910032 8.276791 2.040462 -0.707133 3.875395 0.951339 -0.676655 -0.762264 -0.210256 -0.628045 0.687688 0.169845 -0.423026 2.918076 1.905635 0.000000 0.000000 0.000000 1.190736 -3.108989 -2.823825 0.338855 -3.557687 0.616599 0.163619 -6.931821 -2.688217 0.000000 0.000000 0.000000 -5.071377 -3.553572 -0.678060 -0.324768 -2.803878 -0.041692 -0.601256 -3.390557 -2.506466 0.000000 0.000000 0.000000 -0.659761 -2.707654 1.174533 -0.623735 -0.480464 -0.686548 -0.629951 1.271521 -0.008267 0.000000 0.000000 0.000000 0.718789 -5.208168 -2.552163 0.700215 3.629798 1.721045 0.834086 0.784950 0.593093 0.000000 0.000000 0.000000 
-2146.855713 886.815613 1148.116943 9.044524 8.359178 2.106582 -0.778877 4.154404 1.002501 -0.734292 -0.825273 -0.235008 -0.680443 0.747299 0.175160 -0.439116 2.914330 1.950349 0.000000 0.000000 0.000000 1.159493 -3.298477 -2.782186 0.345505 -3.700775 0.405151 0.164058 -6.911395 -2.615377 0.000000 0.000000 0.000000 -5.079098 -3.806641 -0.847516 -0.348498 -3.125175 0.101134 -0.590955 -3.260126 -2.587484 0.000000 0.000000 0.000000 -0.687418 -2.875604 1.098088 -0.646060 0.161629 -0.524265 -0.660228 1.186378 -0.039620 0.000000 0.000000 0.000000 0.673443 -6.258197 -2.950803 0.661686 5.984328 2.545734 0.920136 0.648506 0.594802 0.000000 0.000000 0.000000 
-2142.448975 886.190002 1148.656982 9.256095 8.380527 2.220302 -0.871464 4.482049 0.935988 -0.786780 -0.893776 -0.197548 -0.731457 0.811797 0.180718 -0.460947 2.898758 2.011054 0.000000 0.000000 0.000000 1.128843 -3.452226 -2.740054 0.355241 -3.818137 0.239125 0.162532 -6.870487 -2.577790 0.000000 0.000000 0.000000 -5.086672 -4.060428 -0.993473 -0.378510 -3.434694 0.203621 -0.584614 -3.171268 -2.648476 0.000000 0.000000 0.000000 -0.734804 -2.959010 0.970825 -0.693022 0.771798 -0.338432 -0.710184 1.081474 -0.083794 0.000000 0.000000 0.000000 0.632049 -7.651890 -3.459755 0.630422 9.131045 3.477718 1.076754 0.454072 0.611317 0.000000 0.000000 0.000000 
-2138.065918 885.457642 1149.272949 9.576637 8.336835 2.340664 -0.996707 4.855908 0.838767 -0.837760 -0.956510 -0.146098 -0.779368 0.881046 0.185589 -0.491598 2.860242 2.095818 0.000000 0.000000 0.000000 1.098713 -3.558419 -2.701350 0.372684 -3.909351 0.163391 0.157540 -6.817495 -2.621871 0.000000 0.000000 0.000000 -5.111658 -4.310887 -1.089258 -0.417561 -3.713697 0.234605 -0.584444 -3.163511 -2.660515 0.000000 0.000000 0.000000 -0.809976 -2.940007 0.851714 -0.777080 1.315783 -0.139293 -0.792071 1.008826 -0.134877 0.000000 0.000000 0.000000 0.595177 -9.530962 -4.054826 0.598684 13.361719 4.554791 1.352477 0.411961 0.717870 0.000000 0.000000 0.000000 
-2133.693604 884.687073 1149.880005 9.917029 8.231149 2.374105 -1.131534 5.292462 0.885049 -0.862836 -1.035633 -0.169252 -0.789216 0.957333 0.189836 -0.528151 2.807237 2.196317 0.000000 0.000000 0.000000 1.068688 -3.629329 -2.662442 0.393035 -3.975435 0.132497 0.150619 -6.743517 -2.701543 0.000000 0.000000 0.000000 -5.137954 -4.561640 -1.164212 -0.462311 -3.981172 0.225299 -0.588304 -3.198662 -2.652514 0.000000 0.000000 0.000000 -0.884715 -2.836658 0.833931 -0.870478 1.823750 0.057617 -0.882275 0.987365 -0.178123 0.000000 0.000000 0.000000 0.588085 -11.710887 -4.611863 0.571885 18.259930 5.659493 1.779431 0.749059 0.986028 0.000000 0.000000 0.000000 
-2129.277344 883.953857 1150.119019 10.181623 8.118233 2.334284 -1.249619 5.734127 0.997874 -0.828961 -1.119960 -0.210950 -0.732411 1.024881 0.193709 -0.563913 2.742418 2.291693 0.000000 0.000000 0.000000 1.047695 -3.652068 -2.650820 0.404128 -3.995481 0.106257 0.145449 -6.704533 -2.738309 0.000000 0.000000 0.000000 -5.154691 -4.805840 -1.207054 -0.508653 -4.229394 0.177113 -0.602891 -3.279733 -2.702194 0.000000 0.000000 0.000000 -0.924742 -2.678602 0.891892 -0.933818 2.253209 0.237663 -0.944757 0.926959 -0.216942 0.000000 0.000000 0.000000 0.646352 -13.938119 -5.048512 0.566370 23.146650 6.539392 2.318314 1.191174 1.322650 0.000000 0.000000 0.000000 
-2124.945557 883.218567 1149.753052 10.399307 8.035339 2.241723 -1.360329 6.119672 1.101690 -0.724782 -1.172759 -0.211086 -0.602634 1.069428 0.200130 -0.595725 2.673463 2.373474 0.000000 0.000000 0.000000 1.038079 -3.600352 -2.711161 0.398511 -3.951878 0.096242 0.144293 -6.772381 -2.691967 0.000000 0.000000 0.000000 -5.178593 -5.064381 -1.189117 -0.560797 -4.464696 0.060719 -0.629808 -3.402670 -2.831000 0.000000 0.000000 0.000000 -0.927897 -2.508190 0.998580 -0.963144 2.608366 0.418127 -0.976555 0.743338 -0.268101 0.000000 0.000000 0.000000 0.821107 -16.340740 -5.379736 0.599157 28.295496 7.196505 3.024311 1.534414 1.692135 0.000000 0.000000 0.000000 
